# xmcd
#
# Track frame offsets:
# 150
# 12515
# 32367
# 52562
# 66937
# 84400
# 100755
# 118740
# 139540
# 154777
# 172530
# 186977
# 202882
# 218712
# 232652
# 244720
# 280370
# 300615
#
# Disc length: 4139 seconds
#
#
# Revision: 0
# Processed by: cddbd v1.5.1PL2 Copyright (c) Steve Scherf et al.
# Submitted via: FreeRIP 2.945 
#
DISCID=db102912
DTITLE=New Grass Revival - Best Of
DYEAR=1900
DGENRE=Bluegrass
TTITLE0=Love Someone Like Me
TTITLE1=Sweet Release
TTITLE2=In The Middle Of The Night
TTITLE3=Saw You Runnin'
TTITLE4=Revival
TTITLE5=Hold To A Dream
TTITLE6=Can't Stop Now
TTITLE7=Metric Lips
TTITLE8=Unconditional Love
TTITLE9=Friday Night In America
TTITLE10=You Plant Your Fields
TTITLE11=Let's Make A Baby King
TTITLE12=Do What You Gotta Do
TTITLE13=Let Me Be Your Man
TTITLE14=Callin' Baton Rouge
TTITLE15=Big Foot
TTITLE16=Angel Eyes
TTITLE17=I'm Down
EXTD=
EXTT0=
EXTT1=
EXTT2=
EXTT3=
EXTT4=
EXTT5=
EXTT6=
EXTT7=
EXTT8=
EXTT9=
EXTT10=
EXTT11=
EXTT12=
EXTT13=
EXTT14=
EXTT15=
EXTT16=
EXTT17=
PLAYORDER=
